<svg xmlns="http://www.w3.org/2000/svg" xmlns:xlink="http://www.w3.org/1999/xlink" width="343pt" height="340pt"><defs><linearGradient id="i"><stop offset="0" stop-color="#688484"/><stop offset="1" stop-color="#84b6b6"/></linearGradient><linearGradient id="h"><stop offset="0"/><stop offset="1"/></linearGradient><linearGradient id="g"><stop offset="0" stop-color="#ff0"/><stop offset="1" stop-color="#ff0"/></linearGradient><linearGradient id="e"><stop offset="0" stop-color="#ccc" stop-opacity="0"/><stop offset=".4820447" stop-color="#c6cccc"/><stop offset="1" stop-color="#c1cccc"/></linearGradient><linearGradient id="f"><stop offset="0" stop-color="#283c3c" stop-opacity="0"/><stop offset="1" stop-color="#2c5454"/></linearGradient><linearGradient id="d"><stop offset="0" stop-color="#688484"/><stop offset="1" stop-color="#84b6b6" stop-opacity="0"/></linearGradient><linearGradient id="c"><stop offset="0" stop-color="#688484"/><stop offset="1" stop-color="#b8b8b8" stop-opacity=".98275864"/></linearGradient><linearGradient id="b"><stop offset="0" stop-color="#68cccc"/><stop offset="1" stop-color="#86b6b6"/></linearGradient><linearGradient id="a"><stop offset="0" stop-color="#88b6b6"/><stop offset="1" stop-color="#ccc"/></linearGradient><linearGradient xlink:href="#a" id="j" gradientUnits="userSpaceOnUse" gradientTransform="translate(-14.924 -19.898)" x1="230.32547" y1="131.459" x2="232.08424" y2="303.01431"/><linearGradient xlink:href="#c" id="k" gradientUnits="userSpaceOnUse" gradientTransform="translate(-14.924 -19.898)" x1="233.01324" y1="191.14748" x2="234.75613" y2="331.43048"/><linearGradient xlink:href="#b" id="l" gradientUnits="userSpaceOnUse" gradientTransform="translate(-14.836 -18.917)" x1="208.23929" y1="93.470398" x2="215.00252" y2="102.92513"/><linearGradient xlink:href="#i" id="m" gradientUnits="userSpaceOnUse" gradientTransform="translate(-14.484 -19.05)" x1="210.9404" y1="106.02285" x2="212.25327" y2="110.12945"/></defs><path d="M280.666087 107.5505833l38.80168 6.9644-37.80676 21.88813z" fill="#ff0" stroke="#3c3c3c" stroke-width="1.375"/><path d="M281.85585 245.10171c18.28535-50.12565 5-170.00001-63.88978-170.000009-68.88979 0-82.59316 120.028819-63.88979 169.999999 7.40376 19.78117 28.74848 46.2162 44.01976 61.30282 11.34872 11.21149 13.90054 20.68701 13.90054 20.68701s51.07209-30.48849 69.85927-81.98982z" fill="url(#j)" stroke="url(#k)" stroke-width="3.125" transform="translate(36.583 2.11)"/><path d="M293.62689116 108.13050412a2.41072625 6.73592358-22.06374988 1 1 4.9950319-.43472335 2.41072625 6.73592358-22.06374988 1 1-4.9950319.43472335z" fill="#3c3c3c"/><path d="M245.51513 221.16262l-23.87796-23.87796-12.9339 66.6593-57.70506 13.92881 55.71523-129.33894 37.51537 30.01816 37.10325-31.01307 69.64405 129.33893-59.69489-9.94915-23.87796-69.64404z" fill="#ff0" stroke="#000" stroke-width="2.5"/><path d="M213.16354 76.292618s-8.56501-1.792561-13.63701-6.84803c-5.072-5.055469-10.30371-7.883027-10.30371-7.883027s.98049 8.26785.14874 13.138696c-.83176 4.87085 2.88841 10.705704 2.88841 10.705704s-3.7973-.3854-5.91458-1.56245c-2.11727-1.17706-4.65085-4.618544-4.65085-4.618544s.39444 6.665064 2.31659 10.484384c1.92216 3.81931 5.4531 6.50836 5.4531 6.50836" fill="url(#l)" stroke="url(#m)" stroke-width="3.125" transform="translate(36.583 2.11)"/><path d="M256.27265 78.827593c-4.97457.06218-5.53422-.31091-9.94915.932733-4.41494 1.243644-.0622 1.98983-.0622 1.98983l10.01133.186546z" fill="#86b6b6"/><g><text style="line-height:125%;-inkscape-font-specification:Meiryo" x="83.717819" y="208.31857" font-size="20" letter-spacing="0" word-spacing="0" font-family="Meiryo"><tspan x="83.717819" y="208.31857">Silverbird</tspan></text></g></svg>